<svg width="433.2" height="72.8" viewBox="0 0 433.2 72.8" xmlns="http://www.w3.org/2000/svg"><g id="svgGroup" stroke-linecap="round" fill-rule="evenodd" font-size="9pt" stroke="#ffffff" stroke-width="0.250mm" fill="#ffffff" style="stroke:#ffffff;stroke-width:0.250mm;fill:#ffffff"><path d="M 397.9 72 L 396.7 72 L 396.7 0 L 397.9 0 L 397.9 33.2 Q 399.6 30.7 401.725 28.675 Q 403.85 26.65 406.3 25.2 Q 408.75 23.75 411.45 22.975 Q 414.15 22.2 417 22.2 Q 425.15 22.2 429.175 27.05 A 16.176 16.176 0 0 1 432.178 32.81 Q 433.2 36.216 433.2 40.6 L 433.2 72 L 432 72 L 432 40.6 A 32.015 32.015 0 0 0 431.789 36.833 A 23.551 23.551 0 0 0 431.1 33.275 A 16.031 16.031 0 0 0 429.824 30.039 A 13.107 13.107 0 0 0 428.325 27.8 Q 426.45 25.55 423.625 24.375 A 14.751 14.751 0 0 0 420.348 23.458 Q 418.879 23.216 417.222 23.201 A 24.306 24.306 0 0 0 417 23.2 Q 411.25 23.2 406.4 26.275 Q 401.55 29.35 397.9 34.75 L 397.9 72 Z M 90.8 2 L 120 72 L 119.1 72 A 0.608 0.608 0 0 1 118.824 71.94 Q 118.683 71.869 118.592 71.715 A 0.966 0.966 0 0 1 118.5 71.5 L 108.75 48.1 L 71.85 48.1 L 62.1 71.5 Q 61.977 71.91 61.585 71.984 A 1.001 1.001 0 0 1 61.4 72 L 60.6 72 L 89.8 2 L 90.8 2 Z M 156 27 L 155.8 27.3 A 0.819 0.819 0 0 1 155.665 27.458 A 0.533 0.533 0 0 1 155.3 27.6 A 0.716 0.716 0 0 1 155.061 27.552 Q 154.713 27.427 154.182 26.974 A 7.731 7.731 0 0 1 154.125 26.925 Q 153.35 26.25 151.875 25.425 A 14.573 14.573 0 0 0 150.549 24.775 Q 149.885 24.488 149.114 24.218 A 28.712 28.712 0 0 0 148.15 23.9 A 13.951 13.951 0 0 0 146.149 23.447 Q 144.56 23.2 142.6 23.2 A 17.606 17.606 0 0 0 139.104 23.535 A 14.713 14.713 0 0 0 136.925 24.15 A 15.661 15.661 0 0 0 134.123 25.498 A 13.084 13.084 0 0 0 132.5 26.675 A 11.612 11.612 0 0 0 129.93 29.733 A 11.015 11.015 0 0 0 129.625 30.3 Q 128.6 32.35 128.6 34.6 A 9.287 9.287 0 0 0 128.807 36.609 A 6.638 6.638 0 0 0 129.85 39.025 A 10.486 10.486 0 0 0 132.496 41.619 A 12.382 12.382 0 0 0 133.125 42.025 A 20.543 20.543 0 0 0 135.881 43.41 A 25.625 25.625 0 0 0 137.75 44.1 Q 140.35 44.95 143.05 45.775 Q 145.75 46.6 148.35 47.525 A 21.034 21.034 0 0 1 151.376 48.867 A 17.772 17.772 0 0 1 152.975 49.85 Q 155 51.25 156.25 53.275 Q 157.448 55.215 157.498 58.051 A 14.11 14.11 0 0 1 157.5 58.3 Q 157.5 61.3 156.425 63.95 Q 155.35 66.6 153.3 68.55 Q 151.25 70.5 148.275 71.65 A 16.795 16.795 0 0 1 144.452 72.61 A 22.086 22.086 0 0 1 141.5 72.8 Q 138.85 72.8 136.775 72.375 A 21.207 21.207 0 0 1 133.947 71.596 A 18.466 18.466 0 0 1 132.925 71.2 Q 131.15 70.45 129.625 69.35 A 35.6 35.6 0 0 1 126.987 67.244 A 39.646 39.646 0 0 1 126.6 66.9 L 126.9 66.6 A 4.156 4.156 0 0 1 126.989 66.514 Q 127.081 66.427 127.15 66.375 Q 127.235 66.312 127.426 66.302 A 1.445 1.445 0 0 1 127.5 66.3 A 0.628 0.628 0 0 1 127.73 66.353 Q 128.124 66.512 128.8 67.15 Q 129.405 67.721 130.337 68.382 A 27.494 27.494 0 0 0 131.325 69.05 A 14.551 14.551 0 0 0 132.879 69.915 Q 133.694 70.311 134.653 70.672 A 27.49 27.49 0 0 0 135.425 70.95 A 14.317 14.317 0 0 0 137.76 71.524 Q 138.92 71.714 140.253 71.773 A 28.034 28.034 0 0 0 141.5 71.8 A 21.098 21.098 0 0 0 144.694 71.569 A 15.673 15.673 0 0 0 147.875 70.75 A 14.738 14.738 0 0 0 150.791 69.277 A 12.368 12.368 0 0 0 152.55 67.875 Q 154.45 66.05 155.425 63.625 A 13.723 13.723 0 0 0 156.392 58.922 A 15.789 15.789 0 0 0 156.4 58.4 A 10.71 10.71 0 0 0 156.209 56.322 Q 155.958 55.053 155.377 54.041 A 6.485 6.485 0 0 0 155.15 53.675 A 10.941 10.941 0 0 0 152.187 50.707 A 12.624 12.624 0 0 0 151.875 50.5 A 19.446 19.446 0 0 0 148.97 48.977 A 23.806 23.806 0 0 0 147.25 48.325 Q 144.65 47.45 141.95 46.65 Q 139.25 45.85 136.65 44.95 A 22.553 22.553 0 0 1 133.695 43.695 A 18.63 18.63 0 0 1 132.025 42.725 Q 130 41.4 128.75 39.45 A 7.626 7.626 0 0 1 127.731 36.917 Q 127.515 35.913 127.501 34.755 A 13.279 13.279 0 0 1 127.5 34.6 Q 127.5 32.15 128.6 29.925 A 12.437 12.437 0 0 1 131.454 26.193 A 14.258 14.258 0 0 1 131.7 25.975 A 14.696 14.696 0 0 1 135.056 23.819 A 17.765 17.765 0 0 1 136.475 23.225 A 16.551 16.551 0 0 1 140.563 22.3 A 20.265 20.265 0 0 1 142.6 22.2 A 25.977 25.977 0 0 1 146.214 22.439 Q 148.202 22.719 149.9 23.325 Q 153.05 24.45 156 27 Z M 198.7 27 L 198.5 27.3 A 0.819 0.819 0 0 1 198.365 27.458 A 0.533 0.533 0 0 1 198 27.6 A 0.716 0.716 0 0 1 197.761 27.552 Q 197.413 27.427 196.882 26.974 A 7.731 7.731 0 0 1 196.825 26.925 Q 196.05 26.25 194.575 25.425 A 14.573 14.573 0 0 0 193.249 24.775 Q 192.585 24.488 191.814 24.218 A 28.712 28.712 0 0 0 190.85 23.9 A 13.951 13.951 0 0 0 188.849 23.447 Q 187.26 23.2 185.3 23.2 A 17.606 17.606 0 0 0 181.804 23.535 A 14.713 14.713 0 0 0 179.625 24.15 A 15.661 15.661 0 0 0 176.823 25.498 A 13.084 13.084 0 0 0 175.2 26.675 A 11.612 11.612 0 0 0 172.63 29.733 A 11.015 11.015 0 0 0 172.325 30.3 Q 171.3 32.35 171.3 34.6 A 9.287 9.287 0 0 0 171.507 36.609 A 6.638 6.638 0 0 0 172.55 39.025 A 10.486 10.486 0 0 0 175.196 41.619 A 12.382 12.382 0 0 0 175.825 42.025 A 20.543 20.543 0 0 0 178.581 43.41 A 25.625 25.625 0 0 0 180.45 44.1 Q 183.05 44.95 185.75 45.775 Q 188.45 46.6 191.05 47.525 A 21.034 21.034 0 0 1 194.076 48.867 A 17.772 17.772 0 0 1 195.675 49.85 Q 197.7 51.25 198.95 53.275 Q 200.148 55.215 200.198 58.051 A 14.11 14.11 0 0 1 200.2 58.3 Q 200.2 61.3 199.125 63.95 Q 198.05 66.6 196 68.55 Q 193.95 70.5 190.975 71.65 A 16.795 16.795 0 0 1 187.152 72.61 A 22.086 22.086 0 0 1 184.2 72.8 Q 181.55 72.8 179.475 72.375 A 21.207 21.207 0 0 1 176.647 71.596 A 18.466 18.466 0 0 1 175.625 71.2 Q 173.85 70.45 172.325 69.35 A 35.6 35.6 0 0 1 169.687 67.244 A 39.646 39.646 0 0 1 169.3 66.9 L 169.6 66.6 A 4.156 4.156 0 0 1 169.689 66.514 Q 169.781 66.427 169.85 66.375 Q 169.935 66.312 170.126 66.302 A 1.445 1.445 0 0 1 170.2 66.3 A 0.628 0.628 0 0 1 170.43 66.353 Q 170.824 66.512 171.5 67.15 Q 172.105 67.721 173.037 68.382 A 27.494 27.494 0 0 0 174.025 69.05 A 14.551 14.551 0 0 0 175.579 69.915 Q 176.394 70.311 177.353 70.672 A 27.49 27.49 0 0 0 178.125 70.95 A 14.317 14.317 0 0 0 180.46 71.524 Q 181.62 71.714 182.953 71.773 A 28.034 28.034 0 0 0 184.2 71.8 A 21.098 21.098 0 0 0 187.394 71.569 A 15.673 15.673 0 0 0 190.575 70.75 A 14.738 14.738 0 0 0 193.491 69.277 A 12.368 12.368 0 0 0 195.25 67.875 Q 197.15 66.05 198.125 63.625 A 13.723 13.723 0 0 0 199.092 58.922 A 15.789 15.789 0 0 0 199.1 58.4 A 10.71 10.71 0 0 0 198.909 56.322 Q 198.658 55.053 198.077 54.041 A 6.485 6.485 0 0 0 197.85 53.675 A 10.941 10.941 0 0 0 194.887 50.707 A 12.624 12.624 0 0 0 194.575 50.5 A 19.446 19.446 0 0 0 191.67 48.977 A 23.806 23.806 0 0 0 189.95 48.325 Q 187.35 47.45 184.65 46.65 Q 181.95 45.85 179.35 44.95 A 22.553 22.553 0 0 1 176.395 43.695 A 18.63 18.63 0 0 1 174.725 42.725 Q 172.7 41.4 171.45 39.45 A 7.626 7.626 0 0 1 170.431 36.917 Q 170.215 35.913 170.201 34.755 A 13.279 13.279 0 0 1 170.2 34.6 Q 170.2 32.15 171.3 29.925 A 12.437 12.437 0 0 1 174.154 26.193 A 14.258 14.258 0 0 1 174.4 25.975 A 14.696 14.696 0 0 1 177.756 23.819 A 17.765 17.765 0 0 1 179.175 23.225 A 16.551 16.551 0 0 1 183.263 22.3 A 20.265 20.265 0 0 1 185.3 22.2 A 25.977 25.977 0 0 1 188.914 22.439 Q 190.902 22.719 192.6 23.325 Q 195.75 24.45 198.7 27 Z M 337.5 43.8 L 299.7 43.8 A 9.816 9.816 0 0 0 299.605 44.863 A 8.669 8.669 0 0 0 299.6 45.15 L 299.6 46.5 A 43.642 43.642 0 0 0 299.914 51.863 Q 300.252 54.591 300.955 56.961 A 26.774 26.774 0 0 0 301.05 57.275 A 25.401 25.401 0 0 0 302.806 61.575 A 19.726 19.726 0 0 0 305.175 65.125 Q 307.85 68.3 311.625 69.95 A 19.819 19.819 0 0 0 317.752 71.497 A 24.048 24.048 0 0 0 320 71.6 A 32.139 32.139 0 0 0 323.178 71.451 Q 325.359 71.234 327.125 70.7 Q 330.1 69.8 332.075 68.7 Q 334.05 67.6 335.075 66.7 A 14.702 14.702 0 0 1 335.434 66.394 Q 336.144 65.81 336.392 65.8 A 0.21 0.21 0 0 1 336.4 65.8 Q 336.6 65.8 336.8 66 L 337 66.2 Q 336.15 67.25 334.475 68.375 A 19.72 19.72 0 0 1 332.65 69.456 A 26.666 26.666 0 0 1 330.525 70.45 A 27.957 27.957 0 0 1 327.196 71.591 A 33.311 33.311 0 0 1 325.55 72 Q 322.85 72.6 320 72.6 A 24.64 24.64 0 0 1 314.931 72.099 A 19.824 19.824 0 0 1 310.95 70.825 Q 306.95 69.05 304.175 65.7 A 21.661 21.661 0 0 1 301.205 60.927 A 27.725 27.725 0 0 1 299.9 57.5 Q 298.4 52.65 298.4 46.5 A 35.054 35.054 0 0 1 298.859 40.718 A 28.505 28.505 0 0 1 299.85 36.625 A 23.592 23.592 0 0 1 302.1 31.645 A 20.167 20.167 0 0 1 304.05 28.95 Q 306.8 25.75 310.775 23.975 A 20.283 20.283 0 0 1 316.455 22.41 A 25.867 25.867 0 0 1 319.8 22.2 A 19.035 19.035 0 0 1 325.914 23.17 A 17.902 17.902 0 0 1 327 23.575 Q 330.35 24.95 332.825 27.65 A 18.071 18.071 0 0 1 335.72 31.942 A 22.393 22.393 0 0 1 336.7 34.275 A 23.365 23.365 0 0 1 337.813 38.919 A 31.859 31.859 0 0 1 338.1 43.3 A 0.565 0.565 0 0 1 338.08 43.454 A 0.397 0.397 0 0 1 337.925 43.675 A 0.665 0.665 0 0 1 337.637 43.79 A 0.885 0.885 0 0 1 337.5 43.8 Z M 270.9 62.7 L 270.9 26.1 L 262.8 26.1 A 1.452 1.452 0 0 1 262.553 26.081 Q 262.1 26.002 262.1 25.6 L 262.1 25.3 L 270.9 25.1 L 271.3 5.4 Q 271.3 5.15 271.425 4.925 A 0.474 0.474 0 0 1 271.529 4.795 Q 271.628 4.709 271.77 4.701 A 0.531 0.531 0 0 1 271.8 4.7 L 272.1 4.7 L 272.1 25.1 L 288.8 25.1 L 288.8 26.1 L 272.1 26.1 L 272.1 62.7 Q 272.1 65.2 272.725 66.925 Q 273.35 68.65 274.45 69.725 Q 275.55 70.8 277 71.3 A 9.305 9.305 0 0 0 279.691 71.792 A 10.651 10.651 0 0 0 280.1 71.8 A 11.495 11.495 0 0 0 281.896 71.667 A 8.318 8.318 0 0 0 283.775 71.15 Q 285.184 70.569 286.213 69.907 A 10.535 10.535 0 0 0 286.45 69.75 A 18.937 18.937 0 0 0 287.215 69.202 Q 287.583 68.923 287.885 68.66 A 9.054 9.054 0 0 0 288.225 68.35 A 6.607 6.607 0 0 1 288.484 68.113 Q 288.878 67.771 289.11 67.712 A 0.366 0.366 0 0 1 289.2 67.7 Q 289.4 67.7 289.6 67.9 L 289.8 68.1 A 10.302 10.302 0 0 1 288.508 69.516 A 12.131 12.131 0 0 1 287.975 69.975 Q 286.9 70.85 285.625 71.475 Q 284.35 72.1 282.925 72.45 Q 281.5 72.8 280.1 72.8 A 12.713 12.713 0 0 1 277.363 72.522 Q 274.958 71.992 273.35 70.45 Q 271.564 68.737 271.08 65.403 A 18.867 18.867 0 0 1 270.9 62.7 Z M 383.7 27.3 L 383.4 27.6 A 0.902 0.902 0 0 1 383.278 27.703 Q 383.206 27.754 383.133 27.778 A 0.419 0.419 0 0 1 383 27.8 Q 382.747 27.8 382.118 27.282 A 10.063 10.063 0 0 1 381.875 27.075 A 7.85 7.85 0 0 0 381.286 26.61 Q 380.558 26.084 379.475 25.5 A 16.215 16.215 0 0 0 378.063 24.83 Q 376.935 24.355 375.525 23.925 A 15.322 15.322 0 0 0 373.26 23.429 Q 371.685 23.2 369.8 23.2 A 22.726 22.726 0 0 0 365.036 23.68 A 18.29 18.29 0 0 0 361.3 24.9 Q 357.55 26.6 354.95 29.75 A 20.368 20.368 0 0 0 352.065 34.466 A 25.634 25.634 0 0 0 350.975 37.4 A 30.909 30.909 0 0 0 349.845 42.971 A 40.368 40.368 0 0 0 349.6 47.5 Q 349.6 53.204 350.93 57.626 A 25.858 25.858 0 0 0 350.975 57.775 A 24.46 24.46 0 0 0 352.706 62.018 A 19.199 19.199 0 0 0 354.9 65.325 Q 357.45 68.4 361.025 70 Q 364.6 71.6 369 71.6 A 28.154 28.154 0 0 0 371.864 71.463 Q 373.955 71.248 375.6 70.7 Q 377.72 69.993 379.254 69.163 A 14.113 14.113 0 0 0 380.05 68.7 A 24.878 24.878 0 0 0 381.061 68.032 Q 382.081 67.319 382.7 66.7 A 11.951 11.951 0 0 1 383.017 66.394 Q 383.654 65.803 383.898 65.8 A 0.201 0.201 0 0 1 383.9 65.8 Q 384.1 65.8 384.3 66 L 384.5 66.2 Q 383.886 67.101 382.801 68.019 A 15.122 15.122 0 0 1 382.3 68.425 A 15.748 15.748 0 0 1 380.522 69.612 A 20.767 20.767 0 0 1 378.85 70.475 A 21.959 21.959 0 0 1 376.299 71.459 A 27.729 27.729 0 0 1 374.35 72 A 21.945 21.945 0 0 1 370.49 72.558 A 25.807 25.807 0 0 1 369 72.6 A 22.839 22.839 0 0 1 364.089 72.092 A 18.727 18.727 0 0 1 360.45 70.9 Q 356.65 69.2 353.975 65.975 A 21.024 21.024 0 0 1 351.051 61.258 A 26.78 26.78 0 0 1 349.85 58.1 A 30.928 30.928 0 0 1 348.719 52.792 A 41.949 41.949 0 0 1 348.4 47.5 A 38.869 38.869 0 0 1 348.834 41.572 A 30.9 30.9 0 0 1 349.85 37.125 A 25.079 25.079 0 0 1 351.893 32.301 A 20.637 20.637 0 0 1 354.05 29.15 Q 356.8 25.85 360.775 24.025 A 19.913 19.913 0 0 1 366.602 22.396 A 25.282 25.282 0 0 1 369.8 22.2 Q 374.25 22.2 377.725 23.625 A 21.776 21.776 0 0 1 381.688 25.729 A 18.557 18.557 0 0 1 383.7 27.3 Z M 237.663 22.656 A 24.833 24.833 0 0 0 232.8 22.2 A 25.952 25.952 0 0 0 228.925 22.478 A 19.674 19.674 0 0 0 223.625 24.025 Q 219.65 25.85 216.925 29.15 Q 214.2 32.45 212.8 37.125 A 31.839 31.839 0 0 0 211.819 41.572 A 40.231 40.231 0 0 0 211.4 47.5 A 41.464 41.464 0 0 0 211.631 51.954 A 32.162 32.162 0 0 0 212.8 57.825 Q 214.2 62.45 216.925 65.75 Q 219.65 69.05 223.625 70.825 A 19.656 19.656 0 0 0 228.05 72.184 A 25.877 25.877 0 0 0 232.8 72.6 A 26.488 26.488 0 0 0 236.501 72.35 A 20.387 20.387 0 0 0 241.95 70.825 Q 245.95 69.05 248.675 65.75 Q 251.4 62.45 252.8 57.825 A 31.238 31.238 0 0 0 253.805 53.253 A 40.093 40.093 0 0 0 254.2 47.5 Q 254.2 41.8 252.8 37.125 A 26.262 26.262 0 0 0 251.796 34.337 A 21.123 21.123 0 0 0 248.675 29.15 Q 245.95 25.85 241.95 24.025 A 19.461 19.461 0 0 0 237.663 22.656 Z M 232.8 71.6 A 24.323 24.323 0 0 0 237.224 71.215 A 18.424 18.424 0 0 0 241.6 69.85 Q 245.4 68.1 247.925 64.95 A 20.045 20.045 0 0 0 250.78 60.067 A 25.106 25.106 0 0 0 251.725 57.35 Q 253 52.9 253 47.5 A 39.764 39.764 0 0 0 252.597 41.718 A 31.798 31.798 0 0 0 251.725 37.625 A 24.073 24.073 0 0 0 249.895 32.994 A 19.754 19.754 0 0 0 247.925 29.95 Q 245.4 26.75 241.6 24.975 A 18.566 18.566 0 0 0 236.523 23.471 A 24.608 24.608 0 0 0 232.8 23.2 A 24.272 24.272 0 0 0 228.381 23.584 A 18.012 18.012 0 0 0 223.975 24.975 Q 220.2 26.75 217.675 29.95 A 20.597 20.597 0 0 0 214.794 34.953 A 25.623 25.623 0 0 0 213.875 37.625 A 33.071 33.071 0 0 0 212.78 43.58 A 41.617 41.617 0 0 0 212.6 47.5 A 39.678 39.678 0 0 0 212.992 53.198 A 31.47 31.47 0 0 0 213.875 57.35 A 23.68 23.68 0 0 0 215.644 61.828 A 19.272 19.272 0 0 0 217.675 64.95 Q 220.2 68.1 223.975 69.85 Q 227.75 71.6 232.8 71.6 Z M 89.5 5.7 L 72.25 47.1 L 108.35 47.1 L 91.1 5.7 A 17.282 17.282 0 0 1 90.869 5.169 A 13.258 13.258 0 0 1 90.675 4.675 A 232.77 232.77 0 0 1 90.494 4.181 A 289.325 289.325 0 0 1 90.3 3.65 A 289.458 289.458 0 0 1 90.106 4.181 A 232.871 232.871 0 0 1 89.925 4.675 A 13.258 13.258 0 0 1 89.731 5.169 A 17.282 17.282 0 0 1 89.5 5.7 Z M 299.75 42.9 L 337 42.9 A 29.697 29.697 0 0 0 336.715 38.683 A 21.941 21.941 0 0 0 335.7 34.475 A 19.256 19.256 0 0 0 333.943 30.76 A 15.785 15.785 0 0 0 332.075 28.3 Q 329.75 25.8 326.6 24.5 Q 323.45 23.2 319.8 23.2 A 23.416 23.416 0 0 0 315.372 23.602 A 18.765 18.765 0 0 0 311.875 24.625 Q 308.35 26.05 305.8 28.625 A 18.843 18.843 0 0 0 302.28 33.627 A 22.159 22.159 0 0 0 301.725 34.85 A 26.907 26.907 0 0 0 300.088 40.484 A 32.191 32.191 0 0 0 299.75 42.9 Z M 0 42.1 Q 0 39.75 0.9 37.675 Q 1.8 35.6 3.325 34.05 Q 4.85 32.5 6.875 31.6 Q 8.9 30.7 11.2 30.7 Q 13.55 30.7 15.625 31.6 Q 17.7 32.5 19.25 34.05 Q 20.8 35.6 21.7 37.675 Q 22.6 39.75 22.6 42.1 Q 22.6 44.4 21.7 46.425 Q 20.8 48.45 19.25 49.975 Q 17.7 51.5 15.625 52.4 Q 13.55 53.3 11.2 53.3 Q 8.9 53.3 6.875 52.4 Q 4.85 51.5 3.325 49.975 Q 1.8 48.45 0.9 46.425 Q 0 44.4 0 42.1 Z" vector-effect="non-scaling-stroke"/></g></svg>