<svg width="410.2" height="75.201" viewBox="0 0 410.2 75.201" xmlns="http://www.w3.org/2000/svg"><g id="svgGroup" stroke-linecap="round" fill-rule="evenodd" font-size="9pt" stroke="#ffffff" stroke-width="0.25mm" fill="#ffffff" style="stroke:#ffffff;stroke-width:0.25mm;fill:#ffffff"><path d="M 375.5 74 L 366.5 74 L 366.5 0 L 375.5 0 L 375.5 30.3 Q 378.3 26.2 382.6 23.5 A 17.572 17.572 0 0 1 389.725 20.991 A 22.595 22.595 0 0 1 392.7 20.8 A 23.225 23.225 0 0 1 397.765 21.318 Q 402.859 22.456 405.85 26.1 Q 409.975 31.126 410.188 39.209 A 33.764 33.764 0 0 1 410.2 40.1 L 410.2 74 L 401.2 74 L 401.2 41.1 Q 401.2 35.5 398.6 32.1 A 8.42 8.42 0 0 0 392.442 28.753 A 11.979 11.979 0 0 0 391.3 28.7 A 13.23 13.23 0 0 0 384.587 30.566 A 17.586 17.586 0 0 0 382.55 31.95 Q 378.4 35.2 375.5 39.6 L 375.5 74 Z M 64.8 71.5 L 56.1 75 L 48.3 55 L 15.9 55 L 8.1 74.8 L 0 71.5 L 27.4 4 L 37.8 4 L 64.8 71.5 Z M 69.3 69.8 L 73.1 62.3 A 18.557 18.557 0 0 0 76.244 64.426 Q 77.798 65.27 79.65 65.95 A 24.073 24.073 0 0 0 87.261 67.387 A 27.464 27.464 0 0 0 88.1 67.4 Q 93.492 67.4 96.335 65.685 A 7.738 7.738 0 0 0 96.55 65.55 Q 99.4 63.7 99.4 60.8 A 7.123 7.123 0 0 0 99.086 58.653 A 6.212 6.212 0 0 0 98.35 57.1 A 6.384 6.384 0 0 0 97.421 56.006 Q 96.407 55.034 94.734 54.081 A 22.3 22.3 0 0 0 94.5 53.95 A 28.462 28.462 0 0 0 92.506 52.957 Q 90.39 51.995 87.401 50.946 A 103.602 103.602 0 0 0 86.4 50.6 A 46.616 46.616 0 0 1 82.002 48.857 Q 79.888 47.883 78.212 46.795 A 19.335 19.335 0 0 1 75.45 44.65 A 11.324 11.324 0 0 1 72.156 38.654 A 16.794 16.794 0 0 1 71.8 35.1 Q 71.8 29.1 77.05 24.95 Q 81.454 21.469 88.708 20.908 A 37.527 37.527 0 0 1 91.6 20.8 A 40.794 40.794 0 0 1 96.046 21.031 Q 98.354 21.284 100.37 21.815 A 25.234 25.234 0 0 1 100.5 21.85 Q 104.4 22.9 107.5 24.5 L 105 31.9 Q 102.3 30.3 98.85 29.3 A 25.024 25.024 0 0 0 94.367 28.453 A 31.837 31.837 0 0 0 91.2 28.3 A 20.632 20.632 0 0 0 88.263 28.495 Q 85.177 28.94 83.3 30.4 A 9.322 9.322 0 0 0 81.942 31.673 Q 81.24 32.492 80.905 33.365 A 4.529 4.529 0 0 0 80.6 35 A 4.921 4.921 0 0 0 82.095 38.552 A 7.082 7.082 0 0 0 82.7 39.1 Q 84.765 40.772 90.698 42.734 A 84.459 84.459 0 0 0 90.9 42.8 A 67.753 67.753 0 0 1 95.962 44.698 Q 101.889 47.217 104.7 50.1 Q 108.6 54.1 108.6 60.1 Q 108.6 66.848 103.349 70.855 A 16.618 16.618 0 0 1 102.95 71.15 Q 98.21 74.547 90.762 75.095 A 40.423 40.423 0 0 1 87.8 75.2 Q 81.9 75.2 77.15 73.7 A 30.883 30.883 0 0 1 73.31 72.215 Q 71.329 71.284 69.748 70.136 A 18.229 18.229 0 0 1 69.3 69.8 Z M 116.1 69.8 L 119.9 62.3 A 18.557 18.557 0 0 0 123.044 64.426 Q 124.598 65.27 126.45 65.95 A 24.073 24.073 0 0 0 134.061 67.387 A 27.464 27.464 0 0 0 134.9 67.4 Q 140.292 67.4 143.135 65.685 A 7.738 7.738 0 0 0 143.35 65.55 Q 146.2 63.7 146.2 60.8 A 7.123 7.123 0 0 0 145.886 58.653 A 6.212 6.212 0 0 0 145.15 57.1 A 6.384 6.384 0 0 0 144.221 56.006 Q 143.207 55.034 141.534 54.081 A 22.3 22.3 0 0 0 141.3 53.95 A 28.462 28.462 0 0 0 139.306 52.957 Q 137.19 51.995 134.201 50.946 A 103.602 103.602 0 0 0 133.2 50.6 A 46.616 46.616 0 0 1 128.802 48.857 Q 126.688 47.883 125.012 46.795 A 19.335 19.335 0 0 1 122.25 44.65 A 11.324 11.324 0 0 1 118.956 38.654 A 16.794 16.794 0 0 1 118.6 35.1 Q 118.6 29.1 123.85 24.95 Q 128.254 21.469 135.508 20.908 A 37.527 37.527 0 0 1 138.4 20.8 A 40.794 40.794 0 0 1 142.846 21.031 Q 145.154 21.284 147.17 21.815 A 25.234 25.234 0 0 1 147.3 21.85 Q 151.2 22.9 154.3 24.5 L 151.8 31.9 Q 149.1 30.3 145.65 29.3 A 25.024 25.024 0 0 0 141.167 28.453 A 31.837 31.837 0 0 0 138 28.3 A 20.632 20.632 0 0 0 135.063 28.495 Q 131.977 28.94 130.1 30.4 A 9.322 9.322 0 0 0 128.742 31.673 Q 128.04 32.492 127.705 33.365 A 4.529 4.529 0 0 0 127.4 35 A 4.921 4.921 0 0 0 128.895 38.552 A 7.082 7.082 0 0 0 129.5 39.1 Q 131.565 40.772 137.498 42.734 A 84.459 84.459 0 0 0 137.7 42.8 A 67.753 67.753 0 0 1 142.762 44.698 Q 148.689 47.217 151.5 50.1 Q 155.4 54.1 155.4 60.1 Q 155.4 66.848 150.149 70.855 A 16.618 16.618 0 0 1 149.75 71.15 Q 145.01 74.547 137.562 75.095 A 40.423 40.423 0 0 1 134.6 75.2 Q 128.7 75.2 123.95 73.7 A 30.883 30.883 0 0 1 120.11 72.215 Q 118.129 71.284 116.548 70.136 A 18.229 18.229 0 0 1 116.1 69.8 Z M 307 51.7 L 270.6 51.7 A 24.088 24.088 0 0 0 271.739 56.725 Q 273.075 60.538 275.7 63.1 Q 279.9 67.2 286.8 67.2 Q 291.3 67.2 294.9 66.25 Q 298.5 65.3 301.8 63.8 L 303.9 71.5 A 40.77 40.77 0 0 1 299.565 73.126 A 51.863 51.863 0 0 1 295.8 74.15 A 38.914 38.914 0 0 1 290.708 74.969 A 52.025 52.025 0 0 1 285.7 75.2 A 28.318 28.318 0 0 1 277.954 74.195 A 21.108 21.108 0 0 1 267.95 68.05 A 23.521 23.521 0 0 1 262.745 58.51 Q 261.4 53.845 261.4 48 A 35.359 35.359 0 0 1 262.233 40.178 A 28.84 28.84 0 0 1 264.35 34.05 A 24.642 24.642 0 0 1 269.366 26.968 A 22.887 22.887 0 0 1 272.6 24.35 A 21.048 21.048 0 0 1 282.859 20.878 A 26.205 26.205 0 0 1 284.9 20.8 Q 292.4 20.8 297.35 24.05 Q 302.3 27.3 304.8 32.8 A 28.185 28.185 0 0 1 307.226 42.664 A 33.434 33.434 0 0 1 307.3 44.9 A 75.204 75.204 0 0 1 307.009 51.597 A 69.426 69.426 0 0 1 307 51.7 Z M 229.2 56.1 L 229.2 31.7 L 220.2 31.7 L 220.2 23.9 L 229.4 23.9 L 231.3 7.5 L 238.2 7.5 L 238.2 23.9 L 252.6 23.9 L 252.6 31.7 L 238.2 31.7 L 238.2 56.8 A 21.559 21.559 0 0 0 238.368 59.596 Q 238.841 63.202 240.65 64.9 Q 243.1 67.2 246.5 67.2 Q 249 67.2 251.25 66.4 Q 253.5 65.6 255.4 64.5 L 257.9 71.7 A 18.546 18.546 0 0 1 256.282 72.556 Q 255.48 72.935 254.534 73.308 A 43.365 43.365 0 0 1 252.5 74.05 Q 249.1 75.2 245.4 75.2 Q 237.9 75.2 233.55 70.25 A 16.116 16.116 0 0 1 230.322 64.348 Q 229.559 61.917 229.315 58.98 A 34.777 34.777 0 0 1 229.2 56.1 Z M 355.2 23.9 L 352.5 31.5 A 30.422 30.422 0 0 0 349.596 30.224 A 23.42 23.42 0 0 0 347.15 29.45 A 20.543 20.543 0 0 0 344.107 28.924 A 26.355 26.355 0 0 0 341.5 28.8 A 15.889 15.889 0 0 0 334.247 30.443 A 16.132 16.132 0 0 0 329.75 33.85 Q 325 38.9 325 47.8 A 25.192 25.192 0 0 0 325.705 53.86 A 21.45 21.45 0 0 0 327 57.6 A 18.564 18.564 0 0 0 329.91 62.177 A 16.275 16.275 0 0 0 332.55 64.6 Q 336.1 67.2 340.9 67.2 Q 344.065 67.2 346.468 66.61 A 15.08 15.08 0 0 0 347.4 66.35 Q 350.089 65.503 353.176 63.912 A 49.095 49.095 0 0 0 353.2 63.9 L 356 71.5 Q 352.9 73.2 349.05 74.2 Q 345.2 75.2 340.3 75.2 A 26.803 26.803 0 0 1 333.261 74.31 A 22.074 22.074 0 0 1 327.35 71.75 Q 321.8 68.3 318.8 62.15 Q 315.8 56 315.8 48 Q 315.8 40.5 318.85 34.3 Q 321.9 28.1 327.6 24.45 A 23.067 23.067 0 0 1 337.268 21.029 A 29.608 29.608 0 0 1 341 20.8 Q 345.4 20.8 348.75 21.6 Q 352.1 22.4 355.2 23.9 Z M 176 71.75 A 24.559 24.559 0 0 0 180.598 73.84 Q 184.653 75.2 189.3 75.2 Q 196.7 75.2 202.55 71.8 Q 208.4 68.4 211.8 62.25 A 26.255 26.255 0 0 0 214.453 55.109 A 34.184 34.184 0 0 0 215.2 47.8 A 34.542 34.542 0 0 0 214.715 41.891 A 25.795 25.795 0 0 0 211.75 33.45 Q 208.3 27.4 202.45 24.1 A 24.848 24.848 0 0 0 197.809 22.073 A 27.738 27.738 0 0 0 189.3 20.8 A 31.325 31.325 0 0 0 187.72 20.839 A 26.169 26.169 0 0 0 176.1 24.1 Q 170.2 27.4 166.8 33.5 A 26.023 26.023 0 0 0 164.051 41.09 A 35.006 35.006 0 0 0 163.4 48 A 34.82 34.82 0 0 0 163.665 52.354 A 27.451 27.451 0 0 0 166.75 62.15 Q 170.1 68.3 176 71.75 Z M 189.3 67.2 Q 197.2 67.2 201.6 61.85 A 18.802 18.802 0 0 0 205.419 53.76 A 27.105 27.105 0 0 0 206 48 Q 206 42.8 203.8 38.45 A 19.198 19.198 0 0 0 199.628 32.881 A 18.17 18.17 0 0 0 197.85 31.45 Q 194.1 28.8 189.3 28.8 A 19.249 19.249 0 0 0 184.074 29.472 A 14.037 14.037 0 0 0 177 34 A 17.878 17.878 0 0 0 173.326 41.374 Q 172.6 44.306 172.6 47.8 Q 172.6 53 174.8 57.45 A 19.437 19.437 0 0 0 178.33 62.49 A 17.627 17.627 0 0 0 180.75 64.55 Q 184.5 67.2 189.3 67.2 Z M 32.1 13.4 L 18.9 47 L 45.2 47 L 32.1 13.4 Z M 270.5 44.4 L 299 44.4 A 24.355 24.355 0 0 0 298.596 39.815 Q 298.1 37.231 296.996 35.207 A 12.422 12.422 0 0 0 295.2 32.7 A 12.488 12.488 0 0 0 288.239 28.924 A 18.395 18.395 0 0 0 284.7 28.6 A 13.58 13.58 0 0 0 279.588 29.535 A 12.524 12.524 0 0 0 275.1 32.65 Q 271.3 36.7 270.5 44.4 Z" vector-effect="non-scaling-stroke"/></g></svg>